Genre:Comedy | Drama | Romance
Language:English
IMDb:http://www.imdb.com/title/tt1174693/
Source:NTSC.DVDR

General
Complete name :The.Four.Faced.Liar.2010.DvDRip.H264.Feel-Free
Format : MPEG-4
Format profile : Base Media
Codec ID : mp42
File size : 745 MiB
Duration : 1h 27mn
Overall bit rate : 1 189 Kbps
Video #1
Codec ID : avc1
Codec ID/Info : Advanced Video Coding
Duration : 1h 27mn
Bit rate mode : Variable
Bit rate : 708 Kbps
Width : 720 pixels
Height : 304 pixels
Display aspect ratio : 2.35:1
Frame rate mode : Constant
Frame rate : 23.976 fps
Resolution : 24 bits
Colorimetry : 4:2:0
Scan type : Progressive
Bits/(Pixel*Frame) : 0.135
Stream size : 444 MiB (60%)
Audio #2
ID : 2
Format : AAC
Format/Info : Advanced Audio Codec
Format version : Version 4
Format profile : LC
Format settings, SBR : No
Codec ID : 40
Duration : 1h 27mn
Bit rate mode : Constant
Bit rate : 477 Kbps
Nominal bit rate : 480 Kbps
Channel(s) : 6 channels
Channel positions : Front: L C R, Rear: L R, LFE
Sampling rate : 48.0 KHz
Resolution : 16 bits
Stream size : 299 MiB (40%)

Plot:
A story of love and lies for four twenty-somethings looking to find themselves in New York City. A pair of best friends and a seemingly perfect couple meet at a local Irish pub tucked in the winding streets of the West Village. Through their chance meeting, the four bond and over time all of their relationships with one another morph into love, betrayal and heartbreak for all.


screens
 
http://www.rapidhdd.com/images/386592vlcsnap-2010-11-15-12h24m22s136.png
 
http://rapidhdd.com/images/556274vlcsnap-2010-11-15-08h14m31s234.png
 
http://www.rapidhdd.com/images/475076vlcsnap-2010-11-15-12h22m54s12.png 
http://www.rapidhdd.com/images/481642vlcsnap-2010-11-15-12h22m48s215.png 
http://www.rapidhdd.com/images/889439vlcsnap-2010-11-15-12h24m36s12.png